<?xml version="1.0" encoding="UTF-8"?>
<svg width="34px" height="30px" viewBox="0 0 34 30" version="1.1" xmlns="http://www.w3.org/2000/svg" xmlns:xlink="http://www.w3.org/1999/xlink">
    <!-- Generator: Sketch 46.2 (44496) - http://www.bohemiancoding.com/sketch -->
    <title>download</title>
    <desc>Created with Sketch.</desc>
    <defs></defs>
    <g id="Page-1" stroke="none" stroke-width="1" fill="none" fill-rule="evenodd">
        <g id="换装" transform="translate(-315.000000, -50.000000)" stroke="#000000" stroke-width="0.5" fill="#000000" fill-rule="nonzero">
            <g id="download" transform="translate(316.000000, 51.000000)">
                <path d="M25.010437,12.8896658 C24.6820835,12.5613122 24.1482985,12.5613122 23.8199449,12.8896658 L16.8386434,19.8709673 L16.8386434,0.855087359 C16.8386434,0.390340802 16.4614578,0.0131551901 15.9967112,0.0131551901 C15.5319646,0.0131551901 15.154779,0.390340802 15.154779,0.855087359 L15.154779,19.8709673 L8.17347749,12.8896658 C7.84512395,12.5613122 7.31133895,12.5613122 6.98298541,12.8896658 C6.65463186,13.2180193 6.65463186,13.7518043 6.98298541,14.0801579 L15.4023071,22.4994795 C15.5673258,22.6644983 15.7828604,22.7453237 15.9983951,22.7453237 C16.2139297,22.7453237 16.4294643,22.6628144 16.594483,22.4977957 L25.0138047,14.078474 C25.3421583,13.7501205 25.3421583,13.2163355 25.0138047,12.8879819 L25.010437,12.8896658 Z" id="Shape"></path>
                <path d="M29.4676259,28.6388489 L2.52579651,28.6388489 C1.1332407,28.6388489 -5.68434189e-14,27.5056082 -5.68434189e-14,26.1130524 L-5.68434189e-14,22.7453237 C-5.68434189e-14,22.2805772 0.377185612,21.9033916 0.841932169,21.9033916 C1.30667873,21.9033916 1.68386434,22.2805772 1.68386434,22.7453237 L1.68386434,26.1130524 C1.68386434,26.577799 2.06104995,26.9549846 2.52579651,26.9549846 L29.4676259,26.9549846 C29.9323725,26.9549846 30.3095581,26.577799 30.3095581,26.1130524 L30.3095581,22.7453237 C30.3095581,22.2805772 30.6867437,21.9033916 31.1514902,21.9033916 C31.6162368,21.9033916 31.9934224,22.2805772 31.9934224,22.7453237 L31.9934224,26.1130524 C31.9934224,27.5056082 30.8601817,28.6388489 29.4676259,28.6388489 Z" id="Shape"></path>
            </g>
        </g>
    </g>
</svg>