<?xml version="1.0" standalone="no"?><!DOCTYPE svg PUBLIC "-//W3C//DTD SVG 1.1//EN" "http://www.w3.org/Graphics/SVG/1.1/DTD/svg11.dtd"><svg t="1513084648988" class="icon" style="" viewBox="0 0 1024 1024" version="1.1" xmlns="http://www.w3.org/2000/svg" p-id="4768" xmlns:xlink="http://www.w3.org/1999/xlink" width="200" height="200"><defs><style type="text/css"></style></defs><path d="M833.0752 554.80832h-278.26688v278.26688a21.41184 21.41184 0 0 1-21.40672 21.40672h-42.80832a21.41184 21.41184 0 0 1-21.40672-21.40672v-278.26688H190.9248a21.41184 21.41184 0 0 1-21.40672-21.40672v-42.80832a21.41184 21.41184 0 0 1 21.40672-21.40672h278.26688V190.9248a21.41184 21.41184 0 0 1 21.40672-21.40672h42.80832a21.41184 21.41184 0 0 1 21.40672 21.40672v278.26688h278.26688a21.41184 21.41184 0 0 1 21.40672 21.40672v42.80832a21.42208 21.42208 0 0 1-21.41184 21.4016z" fill="" p-id="4769"></path></svg>